# AST/ASF file generated using VICON BodyLanguage
# -----------------------------------------------
:version 1.10
:name VICON
:units
  mass 1.0
  length 0.45
  angle deg
:documentation
   .ast/.asf automatically generated from VICON data using
   VICON BodyBuilder and BodyLanguage model FoxedUp or BRILLIANT.MOD
:root
   order TX TY TZ RX RY RZ
   axis XYZ
   position 0 0 0  
   orientation 0 0 0 
:bonedata
  begin
     id 1 
     name lhipjoint
     direction 0.653368 -0.678499 0.335782 
     length 2.51848 
     axis 0 0 0  XYZ
  end
  begin
     id 2 
     name lfemur
     direction 0.34202 -0.939693 0  
     length 6.57749  
     axis 0 0 20  XYZ
    dof rx ry rz
    limits (-160.0 20.0)
           (-70.0 70.0)
           (-60.0 70.0)
  end
  begin
     id 3 
     name ltibia
     direction 0.34202 -0.939693 0   
     length 7.94618   
     axis 0 0 20   XYZ
    dof rx
    limits (-10.0 170.0)
  end
  begin
     id 4 
     name lfoot
     direction 0.0811271 -0.222895 0.971461   
     length 2.31339   
     axis -90 7.62852e-016 20   XYZ
    dof rx rz
    limits (-45.0 90.0)
           (-70.0 20.0)
  end
  begin
     id 5 
     name ltoes
     direction 1.53568e-011 -4.21885e-011 1   
     length 1.15935   
     axis -90 7.62852e-016 20   XYZ
    dof rx
    limits (-90.0 20.0)
  end
  begin
     id 6 
     name rhipjoint
     direction -0.640058 -0.688614 0.340788   
     length 2.48149  
     axis 0 0 0  XYZ 
  end
  begin
     id 7 
     name rfemur
     direction -0.34202 -0.939693 0   
     length 6.57875   
     axis 0 0 -20   XYZ
    dof rx ry rz
    limits (-160.0 20.0)
           (-70.0 70.0)
           (-70.0 60.0)
  end
  begin
     id 8 
     name rtibia
     direction -0.34202 -0.939693 0   
     length 7.977   
     axis 0 0 -20   XYZ
    dof rx
    limits (-10.0 170.0)
 end
 begin
     id 9 
     name rfoot
     direction -0.0979793 -0.269196 0.958089   
     length 2.19857  
     axis -90 -7.62852e-016 -20   XYZ
    dof rx rz
    limits (-45.0 90.0)
           (-20.0 70.0)
  end
  begin
     id 10 
     name rtoes
     direction -1.53556e-011 -4.21868e-011 1   
     length 1.09838   
     axis -90 -7.62852e-016 -20   XYZ
    dof rx
    limits (-90.0 20.0)
  end
  begin
     id 11 
     name lowerback
     direction 0.0149039 0.998517 -0.0523597   
     length 2.10809   
     axis 0 0 0   XYZ
    dof rx ry rz
    limits (-20.0 45.0)
           (-30.0 30.0)
           (-30.0 30.0)
  end
  begin
     id 12 
     name upperback
     direction -0.00882659 0.999418 -0.0329624   
     length 2.1102   
     axis 0 0 0   XYZ
    dof rx ry rz
    limits (-20.0 45.0)
           (-30.0 30.0)
           (-30.0 30.0)
  end
  begin
     id 13 
     name thorax
     direction -0.0165585 0.999826 -0.0085833   
     length 2.11039   
     axis 0 0 0   XYZ
    dof rx ry rz
    limits (-20.0 45.0)
           (-30.0 30.0)
           (-30.0 30.0)
  end
  begin
     id 14 
     name lowerneck
     direction -0.0130877 0.999911 0.00260353   
     length 1.73253   
     axis 0 0 0   XYZ
    dof rx ry rz
    limits (-20.0 45.0)
           (-30.0 30.0)
           (-30.0 30.0)
  end
  begin
     id 15 
     name upperneck
     direction -0.0348454 0.928205 -0.370435   
     length 1.66692   
     axis 0 0 0   XYZ
    dof rx ry rz
    limits (-20.0 45.0)
           (-30.0 30.0)
           (-30.0 30.0)
  end
  begin
     id 16
     name head
     direction -0.00807754 0.992494 -0.122026  
     length 1.72765  
     axis 0 0 0   XYZ
    dof rx ry rz
    limits (-20.0 45.0)
           (-30.0 30.0)
           (-30.0 30.0)
  end
  begin
     id 17 
     name lclavicle
     direction 0.987582 0.144023 0.0627671  
     length 3.49235  
     axis 0 0 0   XYZ
    dof ry rz
    limits (-20.0 10.0)
           (0.0 20.0)
  end
  begin
     id 18 
     name lhumerus
     direction 1 -4.48958e-011 -1.45183e-018   
     length 5.41917   
     axis 180 -30 -90   XYZ
    dof rx ry rz
    limits (-60.0 90.0)
           (-90.0 90.0)
           (-90.0 90.0)
  end
  begin
     id 19
     name lradius
     direction 1 -4.48999e-011 5.75106e-027   
     length 2.44373   
     axis 180 -30 -90   XYZ
    dof rx
    limits (-10.0 170.0)
  end
  begin
     id 20
     name lwrist
     direction 1 -4.48987e-011 1.53461e-026   
     length 1.22186   
     axis -1.09697e-014 90 90   XYZ
    dof ry
    limits (-180.0 0.0)
 end
  begin
     id 21 
     name lhand
     direction 1 -4.48881e-011 3.06923e-026   
     length 0.727502   
     axis -1.95843e-014 90 90   XYZ
    dof rx rz
    limits (-90.0 90.0)
           (-45.0 45.0)
  end
  begin
     id 22 
     name lfingers
     direction 1 -4.48907e-011 6.13845e-026   
     length 0.586531   
     axis -3.91686e-014 90 90   XYZ
    dof rx
    limits (0.0 90.0)
  end
  begin
     id 23
     name lthumb
     direction 0.707107 -6.3487e-011 0.707107   
     length 0.842145   
     axis -90 45 2.85299e-015   XYZ
    dof rx rz
    limits (-45.0 45.0)
           (-45.0 45.0)
  end
  begin
     id 24 
     name rclavicle
     direction -0.980998 0.169556 0.0943023   
     length 3.29272  
     axis 0 0 0   XYZ 
    dof ry rz
    limits (-10.0 20.0)
           (-20.0 0.0)
  end
  begin
     id 25 
     name rhumerus
     direction -1 -1.83355e-005 2.45537e-005  
     length 5.58976   
     axis 180 30 90   XYZ
    dof rx ry rz
    limits (-90.0 60.0)
           (-90.0 90.0)
           (-90.0 90.0)
  end
  begin
     id 26 
     name rradius
     direction -1 -4.48967e-011 5.97228e-027   
     length 2.4806   
     axis 180 30 90   XYZ
    dof rx
    limits (-10.0 170.0)
  end
  begin
     id 27 
     name rwrist
     direction -1 -4.48963e-011 1.53461e-026   
     length 1.2403   
     axis -1.09697e-014 -90 -90   XYZ
    dof ry
    limits (-180.0 0.0)
  end
  begin
     id 28
     name rhand
     direction -1 -4.48881e-011 3.06923e-026   
     length 0.816009   
     axis -1.95843e-014 -90 -90   XYZ
    dof rx rz
    limits (-90.0 90.0)
           (-45.0 45.0)
  end
  begin
     id 29
     name rfingers
     direction -1 -4.49018e-011 6.13845e-026   
     length 0.657887   
     axis -3.91686e-014 -90 -90   XYZ
    dof rx
    limits (0.0 90.0)
  end
  begin
     id 30
     name rthumb
     direction -0.707107 -6.34872e-011 0.707107   
     length 0.944599   
     axis -90 -45 -2.85299e-015   XYZ
    dof rx rz
    limits (-45.0 45.0)
           (-45.0 45.0)
  end
:hierarchy
  begin
    root lhipjoint rhipjoint lowerback
    lhipjoint lfemur
    lfemur ltibia
    ltibia lfoot
    lfoot ltoes
    rhipjoint rfemur
    rfemur rtibia
    rtibia rfoot
    rfoot rtoes
    lowerback upperback
    upperback thorax
    thorax lowerneck lclavicle rclavicle
    lowerneck upperneck
    upperneck head
    lclavicle lhumerus
    lhumerus lradius
    lradius lwrist
    lwrist lhand lthumb
    lhand lfingers
    rclavicle rhumerus
    rhumerus rradius
    rradius rwrist
    rwrist rhand rthumb
    rhand rfingers
  end

#!OML:ASF F:\VICON\USERDATA\INSTALL\rory3\rory3.ASF
:FULLY-SPECIFIED
:DEGREES
1
root 0.490912 16.6517 36.7636 -152.389 2.00935 -178.965
lowerback -17.1208 -0.934635 -5.85715
upperback -10.8854 1.70642 -0.517644
thorax -2.16747 2.06779 2.96744
lowerneck -13.1046 -0.809889 -2.73775
upperneck 30.1543 -3.78776 3.41158
head 12.2117 -2.3986 1.04508
rclavicle -9.74045e-015 -1.51076e-014
rhumerus -44.1839 1.69959 -83.1707
rradius 15.2064
rwrist 4.92418
rhand -4.74787 14.6013
rfingers 7.12502
rthumb 21.0356 -14.2778
lclavicle -9.74045e-015 -1.51076e-014
lhumerus -50.2716 18.884 63.5505
lradius 25.7568
lwrist -3.92006
lhand -9.00378 17.574
lfingers 7.12502
lthumb 16.9428 46.855
rfemur -32.9784 -20.5078 32.868
rtibia 60.0462
rfoot 21.1009 -27.9584
rtoes 29.7387
lfemur -48.2266 -3.75092 -29.5695
ltibia 43.1505
lfoot -42.7168 22.1008
ltoes 16.0029
2
root 0.4933 16.654 36.7793 -152.316 1.91367 -178.927
lowerback -17.1525 -1.00645 -5.86603
upperback -10.8948 1.61828 -0.421094
thorax -2.15679 2.02939 3.0627
lowerneck -13.2717 -0.732028 -2.7876
upperneck 30.3628 -3.66669 3.34911
head 12.3253 -2.36253 1.04428
rclavicle 9.34288e-015 -2.70347e-014
rhumerus -43.9481 1.54205 -82.7866
rradius 14.7382
rwrist 5.77057
rhand -4.4677 14.3287
rfingers 7.12502
rthumb 21.3048 -14.5203
lclavicle 9.34288e-015 -2.70347e-014
lhumerus -49.9487 18.7583 63.7833
lradius 25.6632
lwrist -4.16704
lhand -8.83102 17.2102
lfingers 7.12502
lthumb 17.1091 46.4769
rfemur -33.2333 -20.4795 33.0155
rtibia 60.1604
rfoot 17.7634 -27.3399
rtoes 29.7671
lfemur -48.4184 -3.95748 -29.4023
ltibia 43.1698
lfoot -42.6686 22.3526
ltoes 15.7961
3
root 0.497839 16.6568 36.797 -152.206 1.7308 -178.993
lowerback -17.0485 -1.13806 -5.96177
upperback -10.9382 1.45625 -0.342894
thorax -2.24765 1.96333 3.17092
lowerneck -13.6562 -0.643019 -2.77792
upperneck 30.6863 -3.52696 3.23719
head 12.5297 -2.31419 1.01496
rclavicle 9.06955e-015 -1.59028e-015
rhumerus -43.8308 1.59968 -82.5788
rradius 14.5029
rwrist 6.38363
rhand -4.00608 13.5468
rfingers 7.12502
rthumb 21.7481 -15.2514
lclavicle 9.06955e-015 -1.59028e-015
lhumerus -49.6398 18.7422 63.8833
lradius 25.4367
lwrist -4.37991
lhand -8.61889 16.8646
lfingers 7.12502
lthumb 17.3133 46.1134
rfemur -33.582 -20.5668 33.1397
rtibia 60.2654
rfoot 18.2095 -27.3284
rtoes 29.744
lfemur -48.6339 -4.02815 -29.423
ltibia 43.175
lfoot -42.3115 22.6478
ltoes 15.3821
4
root 0.499933 16.6561 36.8076 -152.214 1.63806 -179.049
lowerback -17.0063 -1.20348 -6.01671
upperback -10.9539 1.37664 -0.293734
thorax -2.28196 1.93085 3.24061
lowerneck -13.7242 -0.594515 -2.79102
upperneck 30.8789 -3.43989 3.09058
head 12.6167 -2.30474 0.971285
rclavicle -6.16232e-015 -7.95139e-015
rhumerus -43.8394 1.59697 -82.3266
rradius 14.1834
rwrist 7.02653
rhand -3.80351 13.1032
rfingers 7.12502
rthumb 21.9426 -15.6723
lclavicle -6.16232e-015 -7.95139e-015
lhumerus -49.436 18.3779 64.179
lradius 25.4462
lwrist -4.24494
lhand -8.29604 16.8584
lfingers 7.12502
lthumb 17.624 46.0797
rfemur -33.7602 -20.7206 33.1369
rtibia 60.384
rfoot 18.5955 -27.3831
rtoes 29.8748
lfemur -48.6392 -4.06253 -29.4725
ltibia 43.1661
lfoot -42.2278 22.5304
ltoes 14.8538
5
root 0.499817 16.6579 36.8113 -152.303 1.67085 -179.068
lowerback -17.0843 -1.19894 -6.00789
upperback -11.0046 1.40566 -0.28945
thorax -2.29938 1.95536 3.24463
lowerneck -13.3095 -0.566711 -2.74635
upperneck 30.9368 -3.42282 2.90625
head 12.5473 -2.34164 0.895834
rclavicle -1.69712e-014 9.54166e-015
rhumerus -44.1018 1.46192 -82.0503
rradius 13.9533
rwrist 7.80994
rhand -3.68146 13.0712
rfingers 7.12502
rthumb 22.0598 -15.6905
lclavicle -1.69712e-014 9.54166e-015
lhumerus -49.4337 17.634 64.569
lradius 25.6263
lwrist -3.78273
lhand -8.14868 16.9904
lfingers 7.12502
lthumb 17.7658 46.1989
rfemur -33.7989 -20.8343 33.046
rtibia 60.5124
rfoot 22.7699 -28.4699
rtoes 31.8841
lfemur -48.5327 -4.14478 -29.4662
ltibia 43.1551
lfoot -42.337 22.5384
ltoes 14.2512
6
root 0.500819 16.6604 36.8166 -152.32 1.81524 -179.082
lowerback -17.1752 -1.17183 -6.01984
upperback -11.0807 1.47441 -0.31002
thorax -2.34157 2.00431 3.23901
lowerneck -13.2301 -0.474575 -2.74291
upperneck 31.2317 -3.36709 2.88649
head 12.6491 -2.34515 0.891128
rclavicle -7.10655e-015 9.54166e-015
rhumerus -44.4046 1.40623 -81.886
rradius 13.9754
rwrist 8.43624
rhand -3.05341 12.737
rfingers 7.12502
rthumb 22.6627 -15.9524
lclavicle -7.10655e-015 9.54166e-015
lhumerus -49.386 16.9535 64.9215
lradius 25.694
lwrist -3.32552
lhand -8.15293 16.9442
lfingers 7.12502
lthumb 17.7617 46.153
rfemur -33.9354 -20.7107 32.9447
rtibia 60.6552
rfoot 19.1312 -27.5609
rtoes 30.9446
lfemur -48.5352 -4.21533 -29.4738
ltibia 43.1571
lfoot -42.3805 22.8542
ltoes 14.7025
7
root 0.501661 16.6588 36.8247 -152.303 1.96343 -179.043
lowerback -17.2459 -1.14535 -5.95847
upperback -11.1097 1.51467 -0.313785
thorax -2.33846 2.02583 3.20738
lowerneck -13.3661 -0.451581 -3.12398
upperneck 31.7907 -3.46335 3.18445
head 12.9267 -2.43212 1.04792
rclavicle -8.77137e-015 2.94201e-014
rhumerus -44.4536 1.24272 -81.6181
rradius 13.7233
rwrist 9.19476
rhand -2.3936 12.511
rfingers 7.12502
rthumb 23.2958 -16.0996
lclavicle -8.77137e-015 2.94201e-014
lhumerus -49.2372 16.366 65.2837
lradius 25.7456
lwrist -2.92067
lhand -7.90163 16.7899
lfingers 7.12502
lthumb 18.0035 45.9766
rfemur -34.0795 -20.4883 32.8958
rtibia 60.7743
rfoot 19.6792 -27.4502
rtoes 30.5746
lfemur -48.5988 -4.24839 -29.44
ltibia 43.1847
lfoot -42.4662 22.9186
ltoes 14.951
8
root 0.500645 16.657 36.8312 -152.325 1.98638 -179.006
lowerback -17.3582 -1.1604 -5.81961
upperback -11.1029 1.48651 -0.30217
thorax -2.266 2.00384 3.1416
lowerneck -13.4048 -0.340315 -3.27379
upperneck 32.1304 -3.38036 3.28809
head 13.0788 -2.42608 1.12117
rclavicle 5.29264e-015 3.97569e-016
rhumerus -44.3599 0.758339 -81.0587
rradius 13.1543
rwrist 10.5441
rhand -2.10386 12.6814
rfingers 7.12502
rthumb 23.5738 -15.8937
lclavicle 5.29264e-015 3.97569e-016
lhumerus -49.1112 15.8778 65.5682
lradius 25.8515
lwrist -2.5949
lhand -7.46599 16.9717
lfingers 7.12502
lthumb 18.4226 46.1194
rfemur -34.1388 -20.4521 32.8805
rtibia 60.8489
rfoot 20.6741 -27.236
rtoes 29.543
lfemur -48.6174 -4.2578 -29.4095
ltibia 43.2228
lfoot -42.4932 22.7954
ltoes 13.8487
9
root 0.50133 16.6555 36.8355 -152.419 1.94831 -178.979
lowerback -17.4495 -1.18258 -5.70068
upperback -11.0804 1.44595 -0.28349
thorax -2.18726 1.97446 3.09253
lowerneck -13.2944 -0.227557 -3.26632
upperneck 32.3015 -3.25562 3.22243
head 13.1202 -2.39902 1.1105
rclavicle -7.40473e-015 -7.95139e-016
rhumerus -44.3163 0.00169944 -80.2954
rradius 12.6348
rwrist 12.2407
rhand -1.83485 12.6242
rfingers 7.12502
rthumb 23.8318 -15.9175
lclavicle -7.40473e-015 -7.95139e-016
lhumerus -48.9566 15.6738 65.6396
lradius 25.7607
lwrist -2.56135
lhand -7.19829 17.237
lfingers 7.12502
lthumb 18.6801 46.3601
rfemur -34.0715 -20.4573 32.8615
rtibia 60.9039
rfoot 25.0473 -28.0716
rtoes 30.8969
lfemur -48.5503 -4.331 -29.3406
ltibia 43.2496
lfoot -42.4922 23.0088
ltoes 12.7612
10
root 0.504358 16.6537 36.8359 -152.598 1.84686 -179.01
lowerback -17.5193 -1.24838 -5.67175
upperback -11.0445 1.35582 -0.245233
thorax -2.10379 1.92375 3.10717
lowerneck -13.0372 -0.146812 -3.31122
upperneck 32.3569 -3.15978 3.16541
head 13.0829 -2.38964 1.10966
rclavicle -7.97623e-015 -5.96354e-015
rhumerus -44.3978 -0.392089 -79.799
rradius 12.3328
rwrist 13.3478
rhand -1.4924 12.213
rfingers 7.12502
rthumb 24.1602 -16.2855
lclavicle -7.97623e-015 -5.96354e-015
lhumerus -48.8744 15.5559 65.5953
lradius 25.5036
lwrist -2.72129
lhand -6.89388 17.1137
lfingers 7.12502
lthumb 18.9729 46.2084
rfemur -33.8678 -20.5086 32.7652
rtibia 60.9659
rfoot 20.1787 -27.7132
rtoes 31.3841
lfemur -48.351 -4.38175 -29.3379
ltibia 43.239
lfoot -42.5215 23.0435
ltoes 12.8078
11
root 0.506947 16.6509 36.8352 -152.699 1.73275 -179.08
lowerback -17.6598 -1.36245 -5.71289
upperback -11.0245 1.22579 -0.16868
thorax -2.00056 1.8622 3.19701
lowerneck -12.8189 -0.0430403 -3.40742
upperneck 32.429 -3.02088 3.12748
head 13.0604 -2.36455 1.13121
rclavicle -9.49197e-015 -1.94809e-014
rhumerus -44.4589 -0.407337 -79.5277
rradius 12.1048
rwrist 13.9481
rhand -1.1427 11.8993
rfingers 7.12502
rthumb 24.4954 -16.5542
lclavicle -9.49197e-015 -1.94809e-014
lhumerus -48.9142 15.3684 65.6194
lradius 25.3599
lwrist -2.74065
lhand -6.35724 16.9292
lfingers 7.12502
lthumb 19.4889 45.9725
rfemur -33.8277 -20.5751 32.6769
rtibia 61.0514
rfoot 21.1267 -27.9843
rtoes 30.8419
lfemur -48.2213 -4.29591 -29.447
ltibia 43.2017
lfoot -42.469 22.5967
ltoes 13.56
